# AST/ASF file generated using VICON BodyLanguage
# -----------------------------------------------
:version 1.10
:name VICON
:units
  mass 1.0
  length 0.45
  angle deg
:documentation
   .ast/.asf automatically generated from VICON data using
   VICON BodyBuilder and BodyLanguage model FoxedUp or BRILLIANT.MOD
:root
   order TX TY TZ RX RY RZ
   axis XYZ
   position 0 0 0  
   orientation 0 0 0 
:bonedata
  begin
     id 1 
     name lhipjoint
     direction 0.653368 -0.678499 0.335782 
     length 2.51848 
     axis 0 0 0  XYZ
  end
  begin
     id 2 
     name lfemur
     direction 0.34202 -0.939693 0  
     length 6.57749  
     axis 0 0 20  XYZ
    dof rx ry rz
    limits (-160.0 20.0)
           (-70.0 70.0)
           (-60.0 70.0)
  end
  begin
     id 3 
     name ltibia
     direction 0.34202 -0.939693 0   
     length 7.94618   
     axis 0 0 20   XYZ
    dof rx
    limits (-10.0 170.0)
  end
  begin
     id 4 
     name lfoot
     direction 0.0811271 -0.222895 0.971461   
     length 2.31339   
     axis -90 7.62852e-016 20   XYZ
    dof rx rz
    limits (-45.0 90.0)
           (-70.0 20.0)
  end
  begin
     id 5 
     name ltoes
     direction 1.53568e-011 -4.21885e-011 1   
     length 1.15935   
     axis -90 7.62852e-016 20   XYZ
    dof rx
    limits (-90.0 20.0)
  end
  begin
     id 6 
     name rhipjoint
     direction -0.640058 -0.688614 0.340788   
     length 2.48149  
     axis 0 0 0  XYZ 
  end
  begin
     id 7 
     name rfemur
     direction -0.34202 -0.939693 0   
     length 6.57875   
     axis 0 0 -20   XYZ
    dof rx ry rz
    limits (-160.0 20.0)
           (-70.0 70.0)
           (-70.0 60.0)
  end
  begin
     id 8 
     name rtibia
     direction -0.34202 -0.939693 0   
     length 7.977   
     axis 0 0 -20   XYZ
    dof rx
    limits (-10.0 170.0)
 end
 begin
     id 9 
     name rfoot
     direction -0.0979793 -0.269196 0.958089   
     length 2.19857  
     axis -90 -7.62852e-016 -20   XYZ
    dof rx rz
    limits (-45.0 90.0)
           (-20.0 70.0)
  end
  begin
     id 10 
     name rtoes
     direction -1.53556e-011 -4.21868e-011 1   
     length 1.09838   
     axis -90 -7.62852e-016 -20   XYZ
    dof rx
    limits (-90.0 20.0)
  end
  begin
     id 11 
     name lowerback
     direction 0.0149039 0.998517 -0.0523597   
     length 2.10809   
     axis 0 0 0   XYZ
    dof rx ry rz
    limits (-20.0 45.0)
           (-30.0 30.0)
           (-30.0 30.0)
  end
  begin
     id 12 
     name upperback
     direction -0.00882659 0.999418 -0.0329624   
     length 2.1102   
     axis 0 0 0   XYZ
    dof rx ry rz
    limits (-20.0 45.0)
           (-30.0 30.0)
           (-30.0 30.0)
  end
  begin
     id 13 
     name thorax
     direction -0.0165585 0.999826 -0.0085833   
     length 2.11039   
     axis 0 0 0   XYZ
    dof rx ry rz
    limits (-20.0 45.0)
           (-30.0 30.0)
           (-30.0 30.0)
  end
  begin
     id 14 
     name lowerneck
     direction -0.0130877 0.999911 0.00260353   
     length 1.73253   
     axis 0 0 0   XYZ
    dof rx ry rz
    limits (-20.0 45.0)
           (-30.0 30.0)
           (-30.0 30.0)
  end
  begin
     id 15 
     name upperneck
     direction -0.0348454 0.928205 -0.370435   
     length 1.66692   
     axis 0 0 0   XYZ
    dof rx ry rz
    limits (-20.0 45.0)
           (-30.0 30.0)
           (-30.0 30.0)
  end
  begin
     id 16
     name head
     direction -0.00807754 0.992494 -0.122026  
     length 1.72765  
     axis 0 0 0   XYZ
    dof rx ry rz
    limits (-20.0 45.0)
           (-30.0 30.0)
           (-30.0 30.0)
  end
  begin
     id 17 
     name lclavicle
     direction 0.987582 0.144023 0.0627671  
     length 3.49235  
     axis 0 0 0   XYZ
    dof ry rz
    limits (-20.0 10.0)
           (0.0 20.0)
  end
  begin
     id 18 
     name lhumerus
     direction 1 -4.48958e-011 -1.45183e-018   
     length 5.41917   
     axis 180 -30 -90   XYZ
    dof rx ry rz
    limits (-60.0 90.0)
           (-90.0 90.0)
           (-90.0 90.0)
  end
  begin
     id 19
     name lradius
     direction 1 -4.48999e-011 5.75106e-027   
     length 2.44373   
     axis 180 -30 -90   XYZ
    dof rx
    limits (-10.0 170.0)
  end
  begin
     id 20
     name lwrist
     direction 1 -4.48987e-011 1.53461e-026   
     length 1.22186   
     axis -1.09697e-014 90 90   XYZ
    dof ry
    limits (-180.0 0.0)
 end
  begin
     id 21 
     name lhand
     direction 1 -4.48881e-011 3.06923e-026   
     length 0.727502   
     axis -1.95843e-014 90 90   XYZ
    dof rx rz
    limits (-90.0 90.0)
           (-45.0 45.0)
  end
  begin
     id 22 
     name lfingers
     direction 1 -4.48907e-011 6.13845e-026   
     length 0.586531   
     axis -3.91686e-014 90 90   XYZ
    dof rx
    limits (0.0 90.0)
  end
  begin
     id 23
     name lthumb
     direction 0.707107 -6.3487e-011 0.707107   
     length 0.842145   
     axis -90 45 2.85299e-015   XYZ
    dof rx rz
    limits (-45.0 45.0)
           (-45.0 45.0)
  end
  begin
     id 24 
     name rclavicle
     direction -0.980998 0.169556 0.0943023   
     length 3.29272  
     axis 0 0 0   XYZ 
    dof ry rz
    limits (-10.0 20.0)
           (-20.0 0.0)
  end
  begin
     id 25 
     name rhumerus
     direction -1 -1.83355e-005 2.45537e-005  
     length 5.58976   
     axis 180 30 90   XYZ
    dof rx ry rz
    limits (-90.0 60.0)
           (-90.0 90.0)
           (-90.0 90.0)
  end
  begin
     id 26 
     name rradius
     direction -1 -4.48967e-011 5.97228e-027   
     length 2.4806   
     axis 180 30 90   XYZ
    dof rx
    limits (-10.0 170.0)
  end
  begin
     id 27 
     name rwrist
     direction -1 -4.48963e-011 1.53461e-026   
     length 1.2403   
     axis -1.09697e-014 -90 -90   XYZ
    dof ry
    limits (-180.0 0.0)
  end
  begin
     id 28
     name rhand
     direction -1 -4.48881e-011 3.06923e-026   
     length 0.816009   
     axis -1.95843e-014 -90 -90   XYZ
    dof rx rz
    limits (-90.0 90.0)
           (-45.0 45.0)
  end
  begin
     id 29
     name rfingers
     direction -1 -4.49018e-011 6.13845e-026   
     length 0.657887   
     axis -3.91686e-014 -90 -90   XYZ
    dof rx
    limits (0.0 90.0)
  end
  begin
     id 30
     name rthumb
     direction -0.707107 -6.34872e-011 0.707107   
     length 0.944599   
     axis -90 -45 -2.85299e-015   XYZ
    dof rx rz
    limits (-45.0 45.0)
           (-45.0 45.0)
  end
:hierarchy
  begin
    root lhipjoint rhipjoint lowerback
    lhipjoint lfemur
    lfemur ltibia
    ltibia lfoot
    lfoot ltoes
    rhipjoint rfemur
    rfemur rtibia
    rtibia rfoot
    rfoot rtoes
    lowerback upperback
    upperback thorax
    thorax lowerneck lclavicle rclavicle
    lowerneck upperneck
    upperneck head
    lclavicle lhumerus
    lhumerus lradius
    lradius lwrist
    lwrist lhand lthumb
    lhand lfingers
    rclavicle rhumerus
    rhumerus rradius
    rradius rwrist
    rwrist rhand rthumb
    rhand rfingers
  end

#!OML:ASF F:\VICON\USERDATA\INSTALL\rory3\rory3.ASF
:FULLY-SPECIFIED
:DEGREES
19
root 3.29968 18.9966 24.0324 -164.717 -51.8577 184.393
lowerback -7.38415 2.27162 -0.073769
upperback -9.55788 2.38565 0.562561
thorax -5.8649 0.928237 0.708079
lowerneck -13.9631 -5.74276 -6.61654
upperneck 29.8803 -8.58561 2.5691
head 12.6422 -4.66364 0.719136
rclavicle -4.14342e-014 2.11706e-014
rhumerus 184.056 -73.3835 149.458
rradius 12.5172
rwrist 83.6878
rhand -4.90046 6.79728
rfingers 7.12502
rthumb 20.8891 -22.0981
lclavicle -4.14342e-014 2.11706e-014
lhumerus -15.0393 23.0985 4.28682
lradius 17.7123
lwrist -47.1735
lhand -0.908444 27.0933
lfingers 7.12502
lthumb 24.72 55.5162
rfemur -37.9112 1.50572 27.2821
rtibia 32.2622
rfoot 18.4992 21.8083
rtoes -51.2127
lfemur -29.1601 3.58831 -26.6659
ltibia 32.2356
lfoot -10.1018 23.1501
ltoes 21.6488
20
root 3.34765 19.0059 23.9347 -166.35 -51.1881 186.084
lowerback -6.84729 2.50426 1.10721
upperback -9.44759 2.69934 0.944266
thorax -6.0114 1.02867 0.437722
lowerneck -13.6549 -5.5771 -6.13221
upperneck 29.6604 -8.34606 2.14225
head 12.4264 -4.56467 0.53115
rclavicle -2.2477e-014 -1.24737e-014
rhumerus 182.093 -71.0406 151.699
rradius 12.5978
rwrist 86.0501
rhand -5.4811 7.41938
rfingers 7.12502
rthumb 20.3311 -21.5364
lclavicle -2.2477e-014 -1.24737e-014
lhumerus -15.2554 23.0773 4.43218
lradius 17.7347
lwrist -47.3525
lhand -1.99932 26.5337
lfingers 7.12502
lthumb 23.674 55.0959
rfemur -37.9071 2.6047 27.5465
rtibia 32.5138
rfoot 25.946 14.5346
rtoes -52.771
lfemur -29.2358 3.60523 -26.1529
ltibia 32.3149
lfoot -8.63712 23.0132
ltoes 16.5102
21
root 3.3934 19.0073 23.83 -167.827 -50.5515 187.497
lowerback -6.31572 2.63751 2.03015
upperback -9.2369 2.90672 1.45181
thorax -6.06479 1.09952 0.439553
lowerneck -13.5719 -5.39073 -5.89715
upperneck 29.6026 -7.99704 1.68493
head 12.3337 -4.44429 0.379124
rclavicle 3.88997e-014 8.74653e-015
rhumerus 179.246 -67.1287 154.839
rradius 12.689
rwrist 90.0683
rhand -6.1108 8.0409
rfingers 7.12502
rthumb 19.7258 -20.9782
lclavicle 3.88997e-014 8.74653e-015
lhumerus -15.8216 23.44 4.51198
lradius 17.7616
lwrist -47.8596
lhand -3.55093 25.725
lfingers 7.12502
lthumb 22.1851 54.4719
rfemur -37.7713 3.66349 27.5948
rtibia 32.5917
rfoot 30.0448 6.66151
rtoes -50.5409
lfemur -29.1488 3.25731 -25.6131
ltibia 32.414
lfoot -8.55304 22.757
ltoes 14.0244
22
root 3.44567 18.9858 23.7095 -168.455 -49.5435 187.879
lowerback -5.81145 2.7548 2.02128
upperback -9.06417 3.10995 1.7957
thorax -6.18365 1.2209 0.786629
lowerneck -13.466 -5.14017 -5.78202
upperneck 29.5991 -7.63775 1.54681
head 12.2813 -4.29613 0.366517
rclavicle -1.32813e-014 -3.3197e-014
rhumerus 178.303 -67.7396 155.924
rradius 12.6619
rwrist 89.4642
rhand -6.46382 8.18322
rfingers 7.12502
rthumb 19.3864 -20.8704
lclavicle -1.32813e-014 -3.3197e-014
lhumerus -16.3838 23.5398 4.51351
lradius 17.9764
lwrist -48.0624
lhand -3.85103 25.6374
lfingers 7.12502
lthumb 21.897 54.4183
rfemur -37.7479 5.10753 26.8611
rtibia 32.5593
rfoot 31.8859 2.97806
rtoes -49.2301
lfemur -29.0998 2.91099 -25.7296
ltibia 32.5409
lfoot -9.67485 22.7123
ltoes 13.1819
23
root 3.46634 18.9649 23.6345 -169.629 -49.5051 188.881
lowerback -5.2022 2.6237 3.35533
upperback -8.8841 2.96497 2.11311
thorax -6.28704 1.07896 0.356102
lowerneck -13.6792 -4.83441 -5.97378
upperneck 29.8621 -7.18424 1.6236
head 12.4234 -4.11184 0.483887
rclavicle -1.25408e-013 1.11319e-014
rhumerus 176.932 -62.4083 157.342
rradius 12.8601
rwrist 95.0505
rhand -7.28005 9.46333
rfingers 7.12502
rthumb 18.6015 -19.6673
lclavicle -1.25408e-013 1.11319e-014
lhumerus -16.9885 22.1986 4.79059
lradius 18.5267
lwrist -47.3387
lhand -2.66444 26.9445
lfingers 7.12502
lthumb 23.036 55.5878
rfemur -37.4975 4.28847 26.9688
rtibia 32.4314
rfoot 32.4872 3.05377
rtoes -49.6351
lfemur -28.9055 2.62717 -25.603
ltibia 32.6459
lfoot -9.52898 22.8308
ltoes 9.88033
24
root 3.497 18.9318 23.5379 -170.476 -49.1111 189.422
lowerback -4.67742 2.64396 4.00242
upperback -8.64451 3.03985 2.36448
thorax -6.30979 1.09398 0.241837
lowerneck -13.7984 -4.67837 -6.24398
upperneck 30.0643 -6.98988 1.89133
head 12.5446 -4.02754 0.652303
rclavicle -2.74944e-014 3.12092e-014
rhumerus 175.925 -46.8554 158.439
rradius 13.9588
rwrist 110.913
rhand -8.79433 11.9487
rfingers 7.12502
rthumb 17.1444 -17.3149
lclavicle -2.74944e-014 3.12092e-014
lhumerus -17.5492 23.8156 4.47404
lradius 18.1621
lwrist -48.0829
lhand -4.22253 25.223
lfingers 7.12502
lthumb 21.5403 54.0452
rfemur -37.2537 4.31772 26.5417
rtibia 32.2988
rfoot 33.4797 1.59359
rtoes -49.4717
lfemur -28.6054 2.52157 -25.7011
ltibia 32.6598
lfoot -8.89665 23.1582
ltoes 6.21724
25
root 3.53122 18.886 23.4318 -171.195 -48.5658 189.837
lowerback -4.25556 2.8163 4.45181
upperback -8.40975 3.31387 2.44945
thorax -6.27346 1.21782 0.0652062
lowerneck -13.5589 -4.63042 -5.77908
upperneck 29.8451 -7.03039 1.83836
head 12.3832 -4.00146 0.559235
rclavicle -4.47017e-014 -3.97569e-015
rhumerus 176.771 -47.5779 158.011
rradius 13.9936
rwrist 110.249
rhand -9.26297 12.1258
rfingers 7.12502
rthumb 16.6933 -17.1764
lclavicle -4.47017e-014 -3.97569e-015
lhumerus -17.4595 23.9461 4.74409
lradius 18.1553
lwrist -47.8758
lhand -4.7615 24.5903
lfingers 7.12502
lthumb 21.0225 53.4709
rfemur -37.1084 5.16968 25.7735
rtibia 32.1824
rfoot 33.1804 -0.221769
rtoes -48.9542
lfemur -28.2495 2.49746 -25.8176
ltibia 32.5325
lfoot -8.40153 23.5601
ltoes 3.22094
26
root 3.55876 18.8218 23.3303 -171.618 -48.1503 189.959
lowerback -3.91882 2.8006 4.87891
upperback -8.1731 3.32964 2.52797
thorax -6.19378 1.2149 -0.101139
lowerneck -13.4318 -4.46745 -5.41692
upperneck 29.5459 -6.80962 1.66882
head 12.2026 -3.87965 0.478023
rclavicle 4.25772e-014 -1.63003e-014
rhumerus 183.14 -77.426 151.562
rradius 12.7244
rwrist 80.2243
rhand -7.90797 8.41486
rfingers 7.12502
rthumb 17.9974 -20.7724
lclavicle 4.25772e-014 -1.63003e-014
lhumerus -17.7313 23.4396 4.82777
lradius 18.3092
lwrist -46.9353
lhand -4.81176 24.6671
lfingers 7.12502
lthumb 20.9743 53.5531
rfemur -37.1803 5.82855 24.7207
rtibia 32.1903
rfoot 33.5361 2.12045
rtoes -51.5266
lfemur -27.8168 2.12519 -26.1407
ltibia 32.1723
lfoot -8.67753 24.1377
ltoes 1.96342
27
root 3.58333 18.7491 23.2319 -171.65 -47.8674 189.684
lowerback -3.67102 2.70129 5.02586
upperback -8.00975 3.22499 2.6568
thorax -6.16395 1.16577 -0.0558578
lowerneck -13.3625 -4.27421 -5.879
upperneck 29.4662 -6.49926 1.96707
head 12.1735 -3.75585 0.716708
rclavicle -5.76476e-015 -1.35174e-014
rhumerus 183.056 -77.5599 151.793
rradius 12.749
rwrist 80.3201
rhand -8.0921 8.64355
rfingers 7.12502
rthumb 17.8202 -20.56
lclavicle -5.76476e-015 -1.35174e-014
lhumerus -18.3069 23.9262 4.7419
lradius 18.372
lwrist -46.9748
lhand -4.91452 24.4176
lfingers 7.12502
lthumb 20.8755 53.3144
rfemur -37.451 6.02695 23.3877
rtibia 32.2849
rfoot 32.9788 5.80453
rtoes -52.9192
lfemur -27.3347 1.63629 -26.7592
ltibia 31.6516
lfoot -10.3448 24.3742
ltoes 6.45537
28
root 3.6053 18.6719 23.1277 -171.761 -47.6919 189.372
lowerback -3.42794 2.60418 5.10838
upperback -7.831 3.12484 2.72588
thorax -6.11436 1.12371 -0.0368836
lowerneck -13.2157 -4.1152 -6.02226
upperneck 29.4178 -6.27906 2.07465
head 12.1226 -3.66502 0.818019
rclavicle 4.98577e-014 1.47101e-014
rhumerus 183.53 -76.3523 151.541
rradius 12.7319
rwrist 81.8242
rhand -8.4065 9.43874
rfingers 7.12502
rthumb 17.5177 -19.792
lclavicle 4.98577e-014 1.47101e-014
lhumerus -18.6469 23.5878 4.89621
lradius 18.5507
lwrist -46.1048
lhand -5.08851 24.3614
lfingers 7.12502
lthumb 20.7084 53.2765
rfemur -37.6681 5.93332 22.0946
rtibia 32.4971
rfoot 28.4988 -19.5854
rtoes -33.4483
lfemur -26.543 1.32334 -27.3867
ltibia 30.8938
lfoot -12.8715 24.373
ltoes 13.3523
